/* XPM */
static char *_d3181e3712e4d51e7a80b60a59eff46sYhw7RgOWC3j2rY7[] = {
/* columns rows colors chars-per-pixel */
"16 16 90 1 ",
"  c #D6D7DF",
". c #D9DAE1",
"X c #DADBE3",
"o c #DEDFE6",
"O c #DFDFE6",
"+ c #E3E3E9",
"@ c #E2E3E8",
"# c #E1E1E7",
"$ c #E4E5EA",
"% c #E2E2E7",
"& c #E3E3E8",
"* c #E1E1E6",
"= c #DDDEE4",
"- c #D8D8E0",
"; c #DCDDE3",
": c #DBDCE3",
"> c #E0E1E7",
", c #E3E4E9",
"< c #E5E6EA",
"1 c #E5E5EB",
"2 c #E6E7EC",
"3 c #E5E5EA",
"4 c #E5E6EB",
"5 c #E7E7EC",
"6 c #E6E6EB",
"7 c #D8D9E0",
"8 c #E1E2E8",
"9 c #E8E9EE",
"0 c #E7E8EC",
"q c #E7E8ED",
"w c #E1E2E7",
"e c #E2E3E9",
"r c #E8E8ED",
"t c #E8E9ED",
"y c #E6E7EB",
"u c #E9E9EE",
"i c #DBDBE2",
"p c #E8E8EC",
"a c #EAEAEE",
"s c #E9E9ED",
"d c #EAEAED",
"f c #E8E9EC",
"g c #E9EAEE",
"h c #EBECEF",
"j c #E9EAED",
"k c #ECECEE",
"l c #EAEBED",
"z c #EBEBEF",
"x c #DBDBE3",
"c c #DFE0E6",
"v c #EAEBEE",
"b c #DADAE1",
"n c #DEDFE4",
"m c #E0E1E6",
"M c #E4E4E9",
"N c #E7E7EA",
"B c #E7E8EB",
"V c #E7E7EB",
"C c #D7D9E0",
"Z c #D8DAE1",
"A c #EAEAEF",
"S c #DEDEE4",
"D c #D7D8DF",
"F c #E4E5E9",
"G c #E6E6EA",
"H c #E3E4E8",
"J c #DDDDE4",
"K c #E0E0E6",
"L c #DEDFE5",
"P c #D7D7DE",
"I c #DBDCE2",
"U c #DFDFE5",
"Y c #E2E3E7",
"T c #E5E5E9",
"R c #E1E2E6",
"E c #DFE0E5",
"W c #DDDEE3",
"Q c #D4D5DC",
"! c #DCDDE2",
"~ c #DFDFE4",
"^ c #DCDCE2",
"/ c #DAD9E0",
"( c #CDCED6",
") c #D3D3DC",
"_ c #D9D9E0",
"` c #D9D9DF",
"' c #DFDEE4",
"] c #DADBE1",
"[ c #D8D8DF",
"{ c white",
/* pixels */
" .XoO++@#$%#+&*=",
"-;:>,<,,1234556%",
"7O8246229240qq0w",
":>e0r2ttqty5u904",
"i@eq9t0pasdfrgh0",
":@8$qt29ujklj0z6",
"xce$94<qgaljfvg<",
"bn>8wmM450NB0V<<",
"C=O#$,0<50p0V,,w",
"Zc>,9242Atfy2y0O",
".c8,y56pp0df<5yS",
"D=mm4rF$4GGVH$,i",
"bJKL,,%w,MH%,+#i",
"PILnU%GYT*RU*KEW",
"Qb;!UmSiWUm~*^i/",
"()_bb;i`^UW'][b`"
};
