/* XPM */
static char *_ae611df614c43fda4753bf43cfa7266x7GVgaCrRm6ZdAjW[] = {
/* columns rows colors chars-per-pixel */
"16 16 241 2 ",
"   c #C77A6F",
".  c #C67366",
"X  c #C87B6B",
"o  c #C97F71",
"O  c #C6746A",
"+  c #C7796E",
"@  c #CB8475",
"#  c #CA7568",
"$  c #C87264",
"%  c #CA7B6A",
"&  c #C87767",
"*  c #C36958",
"=  c #C46E5D",
"-  c #C97E6B",
";  c #C6705E",
":  c #C7705C",
">  c #C78675",
",  c #C78573",
"<  c #CA8A77",
"1  c #C98977",
"2  c #C88574",
"3  c #C88877",
"4  c #CB8B75",
"5  c #CB856F",
"6  c #C9836E",
"7  c #CB8871",
"8  c #C98470",
"9  c #C67C66",
"0  c #C67D66",
"q  c #C98770",
"w  c #C6816A",
"e  c #C68169",
"r  c #C98071",
"t  c #C98A79",
"y  c #C67D71",
"u  c #C6796B",
"i  c #CA8775",
"p  c #CD826F",
"a  c #CA7866",
"s  c #CC7F69",
"d  c #CC8572",
"f  c #C87768",
"g  c #CA8370",
"h  c #C97C66",
"j  c #C77562",
"k  c #C57E6E",
"l  c #CB8572",
"z  c #CC8E79",
"x  c #CD937B",
"c  c #C88B74",
"v  c #C98D76",
"b  c #CE937A",
"n  c #D1927A",
"m  c #D1937C",
"M  c #D1917A",
"N  c #D2927B",
"B  c #CF8D75",
"V  c #CD8C74",
"C  c #CC8D75",
"Z  c #CA8A73",
"A  c #C88972",
"S  c #C88671",
"D  c #C8866F",
"F  c #C87460",
"G  c #C8715D",
"H  c #CA7A64",
"J  c #CE836D",
"K  c #CD7865",
"L  c #CD7965",
"P  c #CE8670",
"I  c #CF7E6A",
"U  c #CF7A66",
"Y  c #CE846D",
"T  c #C87B66",
"R  c #C56E5A",
"E  c #C5715C",
"W  c #C7806B",
"Q  c #C6725D",
"!  c #C26E5B",
"~  c #C98671",
"^  c #C98872",
"/  c #C9826B",
"(  c #CC8771",
")  c #CC8772",
"_  c #CB846D",
"`  c #CC866F",
"'  c #CD8973",
"]  c #CE8D76",
"[  c #CB8671",
"{  c #C7816B",
"}  c #C7846E",
"|  c #C67F69",
" . c #C7806A",
".. c #C6806A",
"X. c #C7836C",
"o. c #C37A69",
"O. c #C7836E",
"+. c #C66F59",
"@. c #C66F58",
"#. c #C88068",
"$. c #C97D68",
"%. c #C7735F",
"&. c #C77862",
"*. c #CA846D",
"=. c #C7735E",
"-. c #C6735F",
";. c #C5765F",
":. c #C26D56",
">. c #C3755F",
",. c #C57A61",
"<. c #C77D6A",
"1. c #C77C67",
"2. c #C77E68",
"3. c #CA836D",
"4. c #CA806A",
"5. c #CB806B",
"6. c #CB816B",
"7. c #CC806A",
"8. c #CC856E",
"9. c #C97E68",
"0. c #C77C66",
"q. c #C7846C",
"w. c #C57B64",
"e. c #C57A64",
"r. c #C77762",
"t. c #C87E68",
"y. c #CE8974",
"u. c #CD7E6A",
"i. c #CC7D68",
"p. c #CE8A73",
"a. c #CF856F",
"s. c #D0826D",
"d. c #CE8973",
"f. c #C87F69",
"g. c #C67561",
"h. c #C67762",
"j. c #C8846F",
"k. c #C77863",
"l. c #C47661",
"z. c #C67F6D",
"x. c #C8755E",
"c. c #C97862",
"v. c #CA836C",
"b. c #C97F69",
"n. c #CA7F69",
"m. c #CC8871",
"M. c #C97A65",
"N. c #C67863",
"B. c #C8826C",
"V. c #C67962",
"C. c #C5745E",
"Z. c #C57963",
"A. c #C77F66",
"S. c #C68572",
"D. c #C98A74",
"F. c #C87D67",
"G. c #C97C65",
"H. c #C9876F",
"J. c #CA8570",
"K. c #C97F6A",
"L. c #C9826C",
"P. c #CB8B74",
"I. c #CA8770",
"U. c #C77D66",
"Y. c #C57861",
"T. c #C47C66",
"R. c #C67F67",
"E. c #C47662",
"W. c #C3745F",
"Q. c #C37A66",
"!. c #C87B65",
"~. c #C8715B",
"^. c #C9755F",
"/. c #C8806A",
"(. c #C7735C",
"). c #C8725B",
"_. c #C77059",
"`. c #C97E67",
"'. c #C37159",
"]. c #C3715A",
"[. c #C5836D",
"{. c #C5836E",
"}. c #C2816E",
"|. c #C4826C",
" X c #C78069",
".X c #C8856E",
"XX c #C88069",
"oX c #C87F68",
"OX c #C9846D",
"+X c #C7856E",
"@X c #C9816B",
"#X c #C88670",
"$X c #C57F69",
"%X c #C5816B",
"&X c #C26F57",
"*X c #C27B66",
"=X c #BE7160",
"-X c #BC6D5D",
";X c #C17D6B",
":X c #C87660",
">X c #C76E58",
",X c #C97760",
"<X c #C27660",
"1X c #BD6750",
"2X c #BE6851",
"3X c #C47D67",
"4X c #C2725C",
"5X c #BE6854",
"6X c #C1735E",
"7X c #C07B66",
"8X c #BE755E",
"9X c #BF7D66",
"0X c #C0816D",
"qX c #C2826D",
"wX c #C4826D",
"eX c #C5806A",
"rX c #C6826B",
"tX c #C47F69",
"yX c #C17962",
"uX c #C27E67",
"iX c #C27D67",
"pX c #C17E68",
"aX c #BF7A63",
"sX c #BF7E68",
"dX c #BA634C",
"fX c #B85E49",
"gX c #B76750",
"hX c #BC6D57",
"jX c #BA604B",
"kX c #B8624C",
"lX c #C07761",
"zX c #C76F59",
"xX c #C86D57",
"cX c #C97962",
"vX c #BB6953",
"bX c #B85B45",
"nX c #B95E48",
"mX c #B86C56",
"MX c #B25C46",
"NX c #B55D47",
"BX c white",
/* pixels */
"  . X o O + @ # $ % & * = - ; : ",
"> , < 1 2 3 4 5 6 7 8 9 0 q w e ",
"r t y u i p a s d f & g h j k l ",
"z x c v b n m M N B V C Z A S D ",
"F G H J K L P I U Y T R E W Q ! ",
"~ ^ / ( ) _ ` ' ] [ { } |  ...X.",
"o.O.+.@.#.$.%.&.*.=.-./ ;.:.>.,.",
"<.1.2.3.4.5.( 6.7.8./ 9.0.q.w.e.",
"$.r.t.y.u.i.p.a.s.d.f.g.h.j.k.l.",
"z.~ x.c.v.b.H n.m.M.N.B.V.C.Z.A.",
"S.D.F.G.H.J.K.L.P.4.2.I.U.Y.T.R.",
"E.W.Q.!.~.^./.(.).n.!._.^.`.'.].",
"[.{.}.|. X#..XXXoXOX+X .@X#X$X%X",
"&X*X=X-X;X:X>X,X<X1X2X3X4X5X6X7X",
"8X9X0XqXwXeX} *.rXtXyXuXiXpXaXsX",
"dXfXgXhXjXkXlXzXxXcXvXbXnXmXMXNX"
};
