/* XPM */
static char *_b805da8192e4d10f3b954952b31856a8MFXpMYfir2zrYvj[] = {
/* columns rows colors chars-per-pixel */
"16 16 211 2 ",
"   c #131218",
".  c #151319",
"X  c #24242C",
"o  c #3B3B45",
"O  c #56575E",
"+  c #3C3D42",
"@  c #2A2A32",
"#  c #2F2F39",
"$  c #3F4047",
"%  c #47484E",
"&  c #393A41",
"*  c #4D5258",
"=  c #32323C",
"-  c #262630",
";  c #23222B",
":  c #19191F",
">  c #17161C",
",  c #212025",
"<  c #2A2930",
"1  c #2F3038",
"2  c #292930",
"3  c #2C2C31",
"4  c #393A3F",
"5  c #3E3F49",
"6  c #44454D",
"7  c #434346",
"8  c #4B4B4E",
"9  c #323338",
"0  c #2B2B33",
"q  c #282830",
"w  c #1E1D24",
"e  c #1A191E",
"r  c #1E1D22",
"t  c #27262B",
"y  c #343238",
"u  c #313136",
"i  c #2C2C35",
"p  c #34333A",
"a  c #48474D",
"s  c #242529",
"d  c #35363B",
"f  c #454345",
"g  c #3A383B",
"h  c #38383E",
"j  c #47464C",
"k  c #3B3A40",
"l  c #2D2C32",
"z  c #29282E",
"x  c #151419",
"c  c #141318",
"v  c #1C1B20",
"b  c #4A4A50",
"n  c #45464B",
"m  c #4B4A4F",
"M  c #29272B",
"N  c #312F34",
"B  c #343237",
"V  c #424146",
"C  c #454449",
"Z  c #3D3B40",
"A  c #55545A",
"S  c #65646B",
"D  c #35343A",
"F  c #131217",
"G  c #1F1E24",
"H  c #2F2F34",
"J  c #3A383E",
"K  c #3E3E43",
"L  c #46464B",
"P  c #4F4F54",
"I  c #65686D",
"U  c #4F5458",
"Y  c #46474C",
"T  c #5F5D62",
"R  c #48484D",
"E  c #393B3F",
"W  c #2E2E32",
"Q  c #35353A",
"!  c #27262C",
"~  c #232128",
"^  c #3A393F",
"/  c #434349",
"(  c #3E3D43",
")  c #323137",
"_  c #3C3E43",
"`  c #535459",
"'  c #6D6D72",
"]  c #66656A",
"[  c #37383D",
"{  c #33353A",
"}  c #26282D",
"|  c #212126",
" . c #16141B",
".. c #333339",
"X. c #47474D",
"o. c #444449",
"O. c #5E5D63",
"+. c #616065",
"@. c #302F34",
"#. c #3A383D",
"$. c #3F3E43",
"%. c #68676C",
"&. c #4E4E53",
"*. c #333439",
"=. c #3A3B40",
"-. c #504F54",
";. c #2C2B31",
":. c #333238",
">. c #1B1C21",
",. c #212127",
"<. c #34343C",
"1. c #444349",
"2. c #434348",
"3. c #525258",
"4. c #42434B",
"5. c #323238",
"6. c #232429",
"7. c #232329",
"8. c #34353A",
"9. c #37363B",
"0. c #232227",
"q. c #28272D",
"w. c #2F2F35",
"e. c #313237",
"r. c #303136",
"t. c #414147",
"y. c #39393E",
"u. c #36373C",
"i. c #2D2D33",
"p. c #2E2F34",
"a. c #3F4045",
"s. c #4A4C50",
"d. c #2A2B2F",
"f. c #29282D",
"g. c #2A292F",
"h. c #19181E",
"j. c #232228",
"k. c #212226",
"l. c #3B3C41",
"z. c #403F43",
"x. c #4A484A",
"c. c #424145",
"v. c #44454A",
"b. c #26272C",
"n. c #1B1A20",
"m. c #2F3136",
"M. c #3C3E44",
"N. c #46484E",
"B. c #414249",
"V. c #2D2D34",
"C. c #33333A",
"Z. c #323439",
"A. c #404043",
"S. c #2B2B30",
"D. c #2D2D32",
"F. c #2F2E34",
"G. c #201F24",
"H. c #3E3F44",
"J. c #3D3F43",
"K. c #40414A",
"L. c #393943",
"P. c #32323D",
"I. c #2B2C34",
"U. c #1F1F24",
"Y. c #3A3A3F",
"T. c #424348",
"R. c #282A2E",
"E. c #28292E",
"W. c #27272C",
"Q. c #1D1D22",
"!. c #1F1E23",
"~. c #1A191F",
"^. c #1C1B22",
"/. c #1C1C23",
"(. c #34383F",
"). c #3C3F44",
"_. c #25262A",
"`. c #24252C",
"'. c #3D4048",
"]. c #2E2D33",
"[. c #161519",
"{. c #18171C",
"}. c #35343B",
"|. c #1F1E25",
" X c #1D1C22",
".X c #232327",
"XX c #302F38",
"oX c #31303C",
"OX c #2A2932",
"+X c #2B2B31",
"@X c #17161B",
"#X c #0E0D11",
"$X c #101015",
"%X c #0F0E13",
"&X c #1E1D23",
"*X c #1D1C21",
"=X c #19181D",
"-X c #111015",
";X c #07070B",
":X c #0D0D10",
">X c #0F0E11",
",X c #26252A",
"<X c #201F25",
"1X c #15141A",
"2X c #121116",
"3X c #131215",
"4X c #111113",
"5X c #141317",
"6X c #16151A",
"7X c #141417",
"8X c white",
/* pixels */
"  . X o O + @ # $ % & * = - ; : ",
"> , < 1 2 3 4 5 6 7 8 9 0 q w e ",
"r t y u i p a s d f g h j k l z ",
"x c v , b n m M N B V C Z A S D ",
"F G H J K L P I U Y T R E W Q ! ",
"~ ^ / ( k ) H _ ` ' ] 9 [ { } | ",
" ...X.o.O.+.@.#.$.%.&.^ *.=.P -.",
";.:.>.,.<.1.2.3.4.5.6.7.8.K 9.0.",
"q.w.[ e.r.r.t.y.u.i.p.a.s.d.f.g.",
"h.j.e.Q k.6.l.z.x.c.v.l.b.n.G G ",
"n.! m.M.N.B.V.C.Z.A.p.>.S.D.F.( ",
"G.l H.J.K.L.P.I.U.Y.T.R.E.W.f.D ",
"v Q.!.~.^./.(.)._.`.L.'.e.].!.r ",
"[.{.;.}.|. X.X}.h XXoXOX+X@X#X$X",
"%XF {.&X&X X{.*Xj.h.j., =X@X-X~.",
";X%X:X>X,X<X1X2X3X4X5X=X~.r 6X7X"
};
