/* XPM */
static char *_83f8d7708944f0ee39fba77246d645eqzLJfjmKgoMauLgu[] = {
/* columns rows colors chars-per-pixel */
"16 16 50 1 ",
"  c #020202",
". c #030202",
"X c #040202",
"o c #040303",
"O c #070203",
"+ c #090003",
"@ c #090103",
"# c #060102",
"$ c #050102",
"% c #070102",
"& c #080103",
"* c #070002",
"= c #050001",
"- c #040203",
"; c #070103",
": c #0A0003",
"> c #0A0104",
", c #080003",
"< c #080002",
"1 c #040001",
"2 c #0B0104",
"3 c #0B0105",
"4 c #0B0004",
"5 c #0A0004",
"6 c #0C0105",
"7 c #050204",
"8 c #0C0104",
"9 c #0C0004",
"0 c #0B0003",
"q c #090104",
"w c #0B0103",
"e c #0D0104",
"r c #0C0003",
"t c #0B0002",
"y c #050105",
"u c #070003",
"i c #0A0103",
"p c #080203",
"a c #040105",
"s c #050003",
"d c #060002",
"f c #040101",
"g c #040104",
"h c #060003",
"j c #060103",
"k c #050103",
"l c #030001",
"z c #050004",
"x c #040103",
"c c white",
/* pixels */
" .XoooO+@@@#OO$$",
"X####%&&**%$##$=",
"-#&;;&:>+,<*###1",
"o%@+@>:23>4+&**#",
"-#*&&&@>&@5+&***",
"-%&&&>2>:46:&;*#",
"7O&&:33:8990&***",
"7#<&@455680+&,*#",
"7%,&q42w2e8+&&%O",
"7%,&q53e9rtr@&&&",
"7#,,&+4494e0;**$",
"yu<,&+&;+i:p%*=.",
"asd*&&&&&&&;<#f$",
"ghj***&&&&&%%#$$",
"gk#*d******#*$1l",
"gzhssxdd*#=f=#=1"
};
